<svg width="137" height="45" viewBox="0 0 137 45" fill="none" xmlns="http://www.w3.org/2000/svg">
<path d="M0 2V3.82414V9.29657H1.54649V3.82414H6.18597V2H0Z" fill="#186DAA"/>
<path d="M136.006 39.9684V38.1443V32.6719H134.46V38.1443H129.82V39.9684H136.006Z" fill="#186DAA"/>
<path d="M9.98 31.344V29.004H21.104C22.16 29.004 22.688 28.488 22.688 27.456V24.72C22.688 23.808 22.28 23.268 21.464 23.1L14.156 21.624C11.372 21.072 9.98 19.2 9.98 16.008V14.028C9.98 10.116 11.936 8.16 15.848 8.16H24.236L26.36 9.816V12.156H15.956C14.9 12.156 14.372 12.672 14.372 13.704V16.116C14.372 17.028 14.78 17.568 15.596 17.736L22.904 19.176C25.688 19.752 27.08 21.624 27.08 24.792V27.132C27.08 31.044 25.124 33 21.212 33H12.104L9.98 31.344ZM31.4706 27.312V19.788C31.4706 15.996 33.3666 14.1 37.1586 14.1H42.1986C45.9666 14.1 47.8506 15.996 47.8506 19.788V27.312C47.8506 31.104 45.9666 33 42.1986 33H37.1586C33.3666 33 31.4706 31.104 31.4706 27.312ZM35.6826 27.672C35.6826 28.776 36.2346 29.328 37.3386 29.328H41.9826C43.0866 29.328 43.6386 28.776 43.6386 27.672V19.428C43.6386 18.324 43.0866 17.772 41.9826 17.772H37.3386C36.2346 17.772 35.6826 18.324 35.6826 19.428V27.672ZM52.8138 26.736V6.36H57.0258V27.168C57.0258 28.728 57.8178 29.568 59.4018 29.688V33.324C55.0098 33.324 52.8138 31.128 52.8138 26.736ZM68.1495 33C64.3575 33 62.4615 31.128 62.4615 27.384C62.4615 23.64 64.3575 21.768 68.1495 21.768H73.6935V19.428C73.6935 18.324 73.1415 17.772 72.0375 17.772H64.4055V15.504L66.2775 14.1H72.2535C76.0215 14.1 77.9055 15.996 77.9055 19.788V33H68.1495ZM66.6735 27.672C66.6735 28.776 67.2255 29.328 68.3295 29.328H73.6935V25.044H68.3295C67.2255 25.044 66.6735 25.584 66.6735 26.664V27.672ZM83.013 33V16.44C83.877 14.88 85.533 14.1 87.981 14.1H91.761L93.669 15.504V17.772H88.953C88.137 17.772 87.561 17.976 87.225 18.384V33H83.013Z" fill="#186DAA"/>
<path d="M95.2738 32.136L102.942 8.16H109.782L117.414 32.136L116.874 33H113.166L111.474 27.528H101.214L99.4858 33H95.8498L95.2738 32.136ZM102.438 23.532H110.286L106.686 12.156H106.002L102.438 23.532ZM121.169 33V8.16H125.561V33H121.169Z" fill="#F2B01B"/>
</svg>
